<?xml version="1.0" encoding="utf-8"?>
<!-- Generator: Adobe Illustrator 14.0.0, SVG Export Plug-In . SVG Version: 6.00 Build 43363)  -->
<!DOCTYPE svg PUBLIC "-//W3C//DTD SVG 1.1//EN" "http://www.w3.org/Graphics/SVG/1.1/DTD/svg11.dtd">
<svg version="1.1"
	 id="svg2" xmlns:sodipodi="http://sodipodi.sourceforge.net/DTD/sodipodi-0.dtd" xmlns:cc="http://creativecommons.org/ns#" xmlns:dc="http://purl.org/dc/elements/1.1/" xmlns:rdf="http://www.w3.org/1999/02/22-rdf-syntax-ns#" xmlns:inkscape="http://www.inkscape.org/namespaces/inkscape" xmlns:svg="http://www.w3.org/2000/svg" xmlns:ns1="http://sozi.baierouge.fr"
	 xmlns="http://www.w3.org/2000/svg" xmlns:xlink="http://www.w3.org/1999/xlink" x="0px" y="0px" width="450px" height="150px"
	 viewBox="0 0 450 150" enable-background="new 0 0 450 150" xml:space="preserve">
<g>
	<g id="g11">
		<g id="g13">
			<path id="path24965_1_" fill="#FACF00" d="M232.933,40.849c0,22.146-18.146,40.1-40.539,40.1c-22.39,0-40.542-17.954-40.542-40.1
				c0-22.147,18.152-40.101,40.542-40.101C214.786,0.748,232.933,18.701,232.933,40.849z"/>
			<path id="path24965-8_1_" fill="#FACF00" d="M298.148,109.15c0,22.148-18.15,40.104-40.541,40.104
				c-22.396,0-40.539-17.955-40.539-40.104c0-22.146,18.143-40.098,40.539-40.098C280,69.053,298.148,87.004,298.148,109.15z"/>
			<path id="path24989_1_" fill="#FACF00" d="M295.494,73.898c0,39.426-31.17,71.387-69.62,71.387
				c-38.451,0-69.625-31.961-69.625-71.387S187.42,2.512,225.874,2.512C264.324,2.512,295.494,34.473,295.494,73.898z"/>
		</g>
		
			<rect id="rect18" x="197.715" y="54.054" transform="matrix(-0.0024 -1 1 -0.0024 162.0601 289.3017)" fill="#FFFFFF" width="55.236" height="19.523"/>
		
			<rect id="rect20" x="218.167" y="82.774" transform="matrix(0.8759 0.4824 -0.4824 0.8759 74.0908 -103.0398)" fill="#FFFFFF" width="38.442" height="19.525"/>
	</g>
	<g id="g22">
		<g id="g24">
			<path id="path24965_2_" fill="#88D54F" d="M83.01,40.506c0,22.369-18.333,40.505-40.949,40.505
				c-22.614,0-40.95-18.136-40.95-40.505C1.111,18.135,19.446,0,42.061,0C64.68,0,83.01,18.136,83.01,40.506z"/>
			<path id="path24965-8_2_" fill="#88D54F" d="M148.89,109.498c0,22.373-18.333,40.502-40.95,40.502
				c-22.619,0-40.948-18.131-40.948-40.502s18.33-40.502,40.948-40.502C130.557,68.996,148.89,87.127,148.89,109.498z"/>
			<path id="path24989_2_" fill="#88D54F" d="M146.217,73.89c0,39.823-31.486,72.106-70.328,72.106
				c-38.839,0-70.325-32.283-70.325-72.106c0-39.824,31.485-72.106,70.325-72.106C114.73,1.783,146.217,34.065,146.217,73.89z"/>
		</g>
		
			<rect id="rect29" x="37.934" y="64.205" transform="matrix(0.7054 -0.7088 0.7088 0.7054 -27.6798 81.5299)" fill="#FFFFFF" width="92.615" height="19.718"/>
		
			<rect id="rect31" x="31.368" y="82.055" transform="matrix(0.7088 0.7054 -0.7054 0.7088 79.6242 -9.0581)" fill="#FFFFFF" width="38.832" height="19.721"/>
	</g>
	<g id="g44">
		<g id="g46">
			<path id="path24965_4_" fill="#FF3200" d="M382.933,40.85c0,22.148-18.15,40.102-40.543,40.102
				c-22.389,0-40.537-17.955-40.537-40.102S320.001,0.752,342.39,0.752C364.787,0.752,382.933,18.703,382.933,40.85z"/>
			<path id="path24965-8_4_" fill="#FF3200" d="M448.15,109.148c0,22.148-18.148,40.102-40.543,40.102
				c-22.393,0-40.539-17.953-40.539-40.102c0-22.146,18.146-40.098,40.539-40.098C430,69.052,448.15,87.002,448.15,109.148z"/>
			<path id="path24989_4_" fill="#FF3200" d="M445.496,73.912c0,39.426-31.172,71.387-69.623,71.387
				c-38.449,0-69.621-31.961-69.621-71.387c0-39.425,31.172-71.388,69.621-71.388C414.324,2.524,445.496,34.487,445.496,73.912
				L445.496,73.912z"/>
		</g>
		
			<rect id="rect51" x="339.966" y="64.783" transform="matrix(1 -0.0024 0.0024 1 -0.178 0.9048)" fill="#FFFFFF" width="73.168" height="19.52"/>
	</g>
	<rect x="0" fill="none" width="150" height="150"/>
	<rect x="150" fill="none" width="149.999" height="150"/>
	<rect x="300.001" fill="none" width="149.998" height="150"/>
</g>
</svg>
